#!OML:ASF X:\für Bonn\!DataBase\2005_08_12_Daniel\c3d\Daniel.ASF
:FULLY-SPECIFIED
:DEGREES
32
root 15.5704 16.0485 15.6878 885.349 -43.7508 -180.9
lowerback 38.2766 1.35496 1.79723
upperback 9.84129 -0.242532 -2.83781
thorax -7.85569 -1.01953 -3.73182
lowerneck -1.4306 1.69583 -1.02963
upperneck 2.22703 2.32812 -3.04378
head 0.944484 1.10483 -0.733795
rclavicle 2.90226e-014 6.36111e-015
rhumerus -36.425 -1.89682 -87.4844
rradius 64.8058
rwrist 9.72505
rhand -33.7412 9.18643
rfingers 7.12502
rthumb -6.92975 -20.6802
lclavicle 2.90226e-014 6.36111e-015
lhumerus -33.7889 20.0509 76.8166
lradius 68.2358
lwrist -21.5693
lhand -25.461 1.83369
lfingers 7.12502
lthumb 1.0663 31.8108
rfemur 8.08343 -0.501993 22.8254
rtibia 50.9617
rfoot -30.7961 7.26165
rtoes -5.86098
lfemur -29.9137 -7.85527 -17.9263
ltibia 33.2279
lfoot -20.3369 -1.17225
ltoes -12.9861
33
root 15.4735 16.0204 15.5996 885.278 -43.7292 -180.814
lowerback 38.3053 1.47639 1.77636
upperback 9.84414 -0.109135 -2.89541
thorax -7.85343 -0.957155 -3.83433
lowerneck -1.36983 1.65054 -1.14117
upperneck 2.257 2.26662 -2.88851
head 0.938863 1.07538 -0.668476
rclavicle 5.96354e-015 -4.05521e-014
rhumerus -36.4084 -2.20929 -87.5609
rradius 65.0525
rwrist 9.86912
rhand -33.7579 8.9921
rfingers 7.12502
rthumb -6.94588 -20.874
lclavicle 5.96354e-015 -4.05521e-014
lhumerus -33.9358 20.0178 76.6964
lradius 68.4335
lwrist -21.7401
lhand -25.8423 1.83305
lfingers 7.12502
lthumb 0.698024 31.8116
rfemur 8.55837 -0.673531 22.7323
rtibia 51.0302
rfoot -30.8406 7.51799
rtoes -5.89389
lfemur -30.0092 -7.59988 -17.8697
ltibia 33.2254
lfoot -20.254 -0.865592
ltoes -13.0777
34
root 15.3746 15.9903 15.5114 885.256 -43.7241 -180.792
lowerback 38.344 1.5999 1.69575
upperback 9.85673 -0.000224968 -2.95981
thorax -7.84603 -0.907507 -3.90303
lowerneck -1.26666 1.6083 -1.24431
upperneck 2.18903 2.20603 -2.76535
head 0.896446 1.0479 -0.615045
rclavicle 6.83819e-014 -2.46493e-014
rhumerus -36.3155 -2.41899 -87.6599
rradius 65.2463
rwrist 9.96343
rhand -33.813 8.76514
rfingers 7.12502
rthumb -6.99909 -21.0991
lclavicle 6.83819e-014 -2.46493e-014
lhumerus -34.0672 20.0345 76.5896
lradius 68.6021
lwrist -21.9072
lhand -26.2896 1.84073
lfingers 7.12502
lthumb 0.266052 31.8203
rfemur 9.01805 -0.852188 22.5676
rtibia 51.1226
rfoot -30.8593 7.7858
rtoes -5.80432
lfemur -30.0977 -7.24773 -17.9388
ltibia 33.3299
lfoot -19.9244 -0.600437
ltoes -13.3085
35
root 15.2746 15.9591 15.4228 885.218 -43.713 -180.74
lowerback 38.3948 1.71536 1.64983
upperback 9.86527 0.109603 -3.04106
thorax -7.84688 -0.857192 -4.00842
lowerneck -1.16446 1.56358 -1.32279
upperneck 2.16797 2.14242 -2.60308
head 0.868769 1.01894 -0.553717
rclavicle 8.5875e-014 1.74931e-014
rhumerus -36.2273 -2.63246 -87.7929
rradius 65.44
rwrist 9.95061
rhand -33.8818 8.59521
rfingers 7.12502
rthumb -7.06545 -21.2669
lclavicle 8.5875e-014 1.74931e-014
lhumerus -34.1324 19.9928 76.4557
lradius 68.7204
lwrist -22.0356
lhand -26.7054 1.90315
lfingers 7.12502
lthumb -0.135519 31.8829
rfemur 9.47767 -0.994813 22.4444
rtibia 51.211
rfoot -30.8833 8.07703
rtoes -5.71909
lfemur -30.2076 -6.754 -18.0363
ltibia 33.5461
lfoot -19.3447 -0.465014
ltoes -13.5068
